<svg xmlns="http://www.w3.org/2000/svg" viewBox="0 0 64 64" width="64" height="64">
  <defs>
    <linearGradient id="grad1" x1="0%" y1="0%" x2="100%" y2="100%">
      <stop offset="0%" style="stop-color:#667eea;stop-opacity:1" />
      <stop offset="100%" style="stop-color:#764ba2;stop-opacity:1" />
    </linearGradient>
    <linearGradient id="grad2" x1="0%" y1="0%" x2="100%" y2="100%">
      <stop offset="0%" style="stop-color:#4facfe;stop-opacity:1" />
      <stop offset="100%" style="stop-color:#00f2fe;stop-opacity:1" />
    </linearGradient>
  </defs>
  
  <!-- Background -->
  <rect width="64" height="64" rx="12" fill="url(#grad1)"/>
  
  <!-- Code Brackets -->
  <path d="M 20 22 L 13 32 L 20 42" 
    stroke="white" 
    stroke-width="2" 
    stroke-linecap="round" 
    stroke-linejoin="round" 
    fill="none"
    opacity="0.9"/>
  <path d="M 44 22 L 51 32 L 44 42" 
    stroke="white" 
    stroke-width="2" 
    stroke-linecap="round" 
    stroke-linejoin="round" 
    fill="none"
    opacity="0.9"/>
  
  <!-- Central Star -->
  <circle cx="32" cy="32" r="6" fill="white"/>
  
  <!-- Orbiting Nodes -->
  <circle cx="32" cy="18" r="1.5" fill="url(#grad2)"/>
  <circle cx="46" cy="32" r="1.5" fill="url(#grad2)"/>
  <circle cx="32" cy="46" r="1.5" fill="url(#grad2)"/>
  <circle cx="18" cy="32" r="1.5" fill="url(#grad2)"/>
  
  <!-- Connection Lines -->
  <line x1="32" y1="26" x2="32" y2="20" stroke="white" stroke-width="1" opacity="0.6"/>
  <line x1="38" y1="32" x2="44" y2="32" stroke="white" stroke-width="1" opacity="0.6"/>
  <line x1="32" y1="38" x2="32" y2="44" stroke="white" stroke-width="1" opacity="0.6"/>
  <line x1="26" y1="32" x2="20" y2="32" stroke="white" stroke-width="1" opacity="0.6"/>
  
  <!-- Inner Ring -->
  <circle cx="32" cy="32" r="10" fill="none" stroke="white" stroke-width="1" opacity="0.3"/>
  
  <!-- Outer Ring -->
  <circle cx="32" cy="32" r="22" fill="none" stroke="white" stroke-width="1.5" opacity="0.2"/>
</svg>