<svg xmlns="http://www.w3.org/2000/svg" viewBox="0 0 192 192" width="192" height="192">
  <defs>
    <linearGradient id="grad1" x1="0%" y1="0%" x2="100%" y2="100%">
      <stop offset="0%" style="stop-color:#667eea;stop-opacity:1" />
      <stop offset="100%" style="stop-color:#764ba2;stop-opacity:1" />
    </linearGradient>
    <linearGradient id="grad2" x1="0%" y1="0%" x2="100%" y2="100%">
      <stop offset="0%" style="stop-color:#4facfe;stop-opacity:1" />
      <stop offset="100%" style="stop-color:#00f2fe;stop-opacity:1" />
    </linearGradient>
  </defs>
  
  <!-- Background -->
  <rect width="192" height="192" rx="36" fill="url(#grad1)"/>
  
  <!-- Code Brackets -->
  <path d="M 60 68 L 40 96 L 60 124" 
    stroke="white" 
    stroke-width="6" 
    stroke-linecap="round" 
    stroke-linejoin="round" 
    fill="none"
    opacity="0.9"/>
  <path d="M 132 68 L 152 96 L 132 124" 
    stroke="white" 
    stroke-width="6" 
    stroke-linecap="round" 
    stroke-linejoin="round" 
    fill="none"
    opacity="0.9"/>
  
  <!-- Central Star -->
  <circle cx="96" cy="96" r="18" fill="white"/>
  
  <!-- Orbiting Nodes -->
  <circle cx="96" cy="56" r="4.5" fill="url(#grad2)"/>
  <circle cx="136" cy="96" r="4.5" fill="url(#grad2)"/>
  <circle cx="96" cy="136" r="4.5" fill="url(#grad2)"/>
  <circle cx="56" cy="96" r="4.5" fill="url(#grad2)"/>
  
  <!-- Connection Lines -->
  <line x1="96" y1="78" x2="96" y2="60" stroke="white" stroke-width="2" opacity="0.6"/>
  <line x1="114" y1="96" x2="132" y2="96" stroke="white" stroke-width="2" opacity="0.6"/>
  <line x1="96" y1="114" x2="96" y2="132" stroke="white" stroke-width="2" opacity="0.6"/>
  <line x1="78" y1="96" x2="60" y2="96" stroke="white" stroke-width="2" opacity="0.6"/>
  
  <!-- Inner Ring -->
  <circle cx="96" cy="96" r="28" fill="none" stroke="white" stroke-width="2" opacity="0.3"/>
  
  <!-- Outer Ring -->
  <circle cx="96" cy="96" r="68" fill="none" stroke="white" stroke-width="3" opacity="0.2"/>
</svg>