<svg xmlns="http://www.w3.org/2000/svg" viewBox="0 0 128 128" width="128" height="128">
  <defs>
    <linearGradient id="grad1" x1="0%" y1="0%" x2="100%" y2="100%">
      <stop offset="0%" style="stop-color:#667eea;stop-opacity:1" />
      <stop offset="100%" style="stop-color:#764ba2;stop-opacity:1" />
    </linearGradient>
    <linearGradient id="grad2" x1="0%" y1="0%" x2="100%" y2="100%">
      <stop offset="0%" style="stop-color:#4facfe;stop-opacity:1" />
      <stop offset="100%" style="stop-color:#00f2fe;stop-opacity:1" />
    </linearGradient>
  </defs>
  
  <!-- Background -->
  <rect width="128" height="128" rx="24" fill="url(#grad1)"/>
  
  <!-- Code Brackets -->
  <path d="M 40 45 L 27 64 L 40 83" 
    stroke="white" 
    stroke-width="4" 
    stroke-linecap="round" 
    stroke-linejoin="round" 
    fill="none"
    opacity="0.9"/>
  <path d="M 88 45 L 101 64 L 88 83" 
    stroke="white" 
    stroke-width="4" 
    stroke-linecap="round" 
    stroke-linejoin="round" 
    fill="none"
    opacity="0.9"/>
  
  <!-- Central Star -->
  <circle cx="64" cy="64" r="12" fill="white"/>
  
  <!-- Orbiting Nodes -->
  <circle cx="64" cy="37" r="3" fill="url(#grad2)"/>
  <circle cx="91" cy="64" r="3" fill="url(#grad2)"/>
  <circle cx="64" cy="91" r="3" fill="url(#grad2)"/>
  <circle cx="37" cy="64" r="3" fill="url(#grad2)"/>
  
  <!-- Connection Lines -->
  <line x1="64" y1="52" x2="64" y2="40" stroke="white" stroke-width="1.5" opacity="0.6"/>
  <line x1="76" y1="64" x2="88" y2="64" stroke="white" stroke-width="1.5" opacity="0.6"/>
  <line x1="64" y1="76" x2="64" y2="88" stroke="white" stroke-width="1.5" opacity="0.6"/>
  <line x1="52" y1="64" x2="40" y2="64" stroke="white" stroke-width="1.5" opacity="0.6"/>
  
  <!-- Inner Ring -->
  <circle cx="64" cy="64" r="19" fill="none" stroke="white" stroke-width="1.5" opacity="0.3"/>
  
  <!-- Outer Ring -->
  <circle cx="64" cy="64" r="45" fill="none" stroke="white" stroke-width="2" opacity="0.2"/>
</svg>